<?xml version="1.0" standalone="no"?>
<!DOCTYPE svg PUBLIC "-//W3C//DTD SVG 20010904//EN"
 "http://www.w3.org/TR/2001/REC-SVG-20010904/DTD/svg10.dtd">
<svg version="1.0" xmlns="http://www.w3.org/2000/svg"
 width="512.000000pt" height="512.000000pt" viewBox="0 0 512.000000 512.000000"
 preserveAspectRatio="xMidYMid meet">
<metadata>
Created by potrace 1.13, written by Peter Selinger 2001-2015
</metadata>
<g transform="translate(0.000000,512.000000) scale(0.100000,-0.100000)"
fill="#000000" stroke="none">
<path d="M525 5110 c-177 -36 -332 -171 -398 -347 -31 -84 -31 -262 0 -346
113 -303 458 -442 741 -298 119 61 219 178 263 308 33 95 33 231 0 326 -86
254 -349 408 -606 357z"/>
<path d="M4368 5105 c-174 -44 -320 -180 -379 -352 -33 -95 -33 -231 0 -326
44 -130 144 -247 263 -308 283 -144 628 -5 741 298 31 84 31 262 -1 348 -55
149 -181 274 -328 326 -78 27 -219 34 -296 14z"/>
<path d="M1745 4056 c-28 -12 -65 -40 -84 -61 -65 -75 -65 -76 -69 -441 l-3
-330 228 -213 c125 -117 243 -232 261 -257 l34 -44 381 0 c363 0 384 1 427 21
83 38 132 101 149 194 15 79 15 861 0 940 -17 93 -66 156 -149 194 -41 19 -65
21 -267 21 l-223 0 0 -95 0 -95 -95 0 -95 0 0 95 0 95 -222 0 c-212 0 -225 -1
-273 -24z m739 -571 c64 -76 116 -143 116 -147 0 -4 -34 -8 -75 -8 l-75 0 0
-185 0 -185 -115 0 -115 0 -2 188 -3 187 -74 5 -74 5 133 158 c128 152 134
158 151 140 9 -10 70 -81 133 -158z"/>
<path d="M569 3750 c-138 -24 -252 -139 -279 -280 -6 -32 -10 -323 -10 -739 0
-587 2 -695 15 -746 18 -67 47 -116 99 -166 l35 -34 -114 -796 c-82 -574 -111
-805 -106 -830 37 -165 267 -183 325 -26 9 23 43 233 76 466 33 233 61 426 63
427 1 2 17 -54 34 -124 17 -70 68 -279 113 -465 90 -370 95 -382 175 -418 22
-10 54 -19 70 -19 45 0 109 34 135 70 48 68 48 69 -159 921 -105 431 -191 791
-191 800 0 8 13 28 29 43 15 15 41 53 57 84 l29 57 3 553 c1 325 6 552 12 550
5 -2 166 -150 358 -330 192 -180 365 -336 383 -347 41 -25 117 -28 158 -6 87
44 119 148 75 237 -11 21 -929 888 -1111 1050 -62 54 -181 84 -274 68z"/>
<path d="M4414 3745 c-34 -7 -75 -20 -90 -28 -49 -25 -1149 -1061 -1162 -1093
-21 -56 -23 -73 -12 -113 12 -47 50 -96 91 -116 41 -22 117 -19 158 6 18 11
191 167 383 347 192 180 353 328 358 330 6 2 11 -225 12 -550 l3 -553 29 -57
c16 -31 42 -69 57 -84 16 -15 29 -35 29 -43 0 -9 -86 -369 -191 -800 -207
-852 -207 -853 -159 -921 26 -36 90 -70 135 -70 17 0 48 9 70 19 80 36 85 48
175 418 45 186 96 395 113 465 17 70 33 126 34 124 2 -1 30 -194 63 -427 33
-233 67 -443 76 -466 58 -157 288 -139 325 26 5 25 -24 256 -106 830 l-114
796 35 34 c52 50 81 99 99 166 13 51 15 159 15 746 0 416 -4 707 -10 739 -21
113 -92 203 -195 250 -75 35 -142 42 -221 25z"/>
</g>
</svg>
